<mxfile host="65bd71144e">
    <diagram id="rmAoNv0wJXanQEmWYZtV" name="Page-1">
        <mxGraphModel dx="1257" dy="901" grid="1" gridSize="10" guides="1" tooltips="1" connect="1" arrows="1" fold="1" page="1" pageScale="1" pageWidth="850" pageHeight="1100" background="#FFFFFF" math="0" shadow="0">
            <root>
                <mxCell id="0"/>
                <mxCell id="1" parent="0"/>
                <mxCell id="2" value="&lt;h1&gt;&lt;font size=&quot;1&quot; color=&quot;#8077e0&quot; face=&quot;Rock Salt&quot; data-font-src=&quot;https://fonts.googleapis.com/css?family=Rock+Salt&quot; style=&quot;&quot;&gt;&lt;b style=&quot;font-size: 36px;&quot;&gt;Works&lt;/b&gt;&lt;/font&gt;&lt;/h1&gt;" style="ellipse;whiteSpace=wrap;html=1;strokeWidth=5;strokeColor=#8077e0;" parent="1" vertex="1">
                    <mxGeometry x="330" y="490" width="190" height="150" as="geometry"/>
                </mxCell>
                <mxCell id="16" style="edgeStyle=none;html=1;entryX=0.094;entryY=0.8;entryDx=0;entryDy=0;fontColor=#A9A9A9;strokeColor=#EEB05B;rounded=1;endArrow=block;endFill=1;endSize=10;strokeWidth=4;entryPerimeter=0;" parent="1" source="3" target="2" edge="1">
                    <mxGeometry relative="1" as="geometry"/>
                </mxCell>
                <mxCell id="3" value="&lt;font face=&quot;Rock Salt&quot; data-font-src=&quot;https://fonts.googleapis.com/css?family=Rock+Salt&quot; style=&quot;&quot;&gt;&lt;font size=&quot;1&quot; color=&quot;#eeb05b&quot; style=&quot;&quot;&gt;&lt;b style=&quot;font-size: 26px;&quot;&gt;Concepts&lt;/b&gt;&lt;/font&gt;&lt;br&gt;&lt;/font&gt;" style="ellipse;whiteSpace=wrap;html=1;strokeColor=#eeb05b;strokeWidth=4;" parent="1" vertex="1">
                    <mxGeometry x="110" y="630" width="170" height="130" as="geometry"/>
                </mxCell>
                <mxCell id="20" style="edgeStyle=none;rounded=1;html=1;entryX=0.5;entryY=1;entryDx=0;entryDy=0;strokeColor=#A9A9A9;strokeWidth=4;fontColor=#A9A9A9;endArrow=block;endFill=1;endSize=10;" parent="1" source="8" target="2" edge="1">
                    <mxGeometry relative="1" as="geometry"/>
                </mxCell>
                <mxCell id="8" value="&lt;font face=&quot;Rock Salt&quot; data-font-src=&quot;https://fonts.googleapis.com/css?family=Rock+Salt&quot; style=&quot;&quot;&gt;&lt;font color=&quot;#a9a9a9&quot; style=&quot;font-size: 21px;&quot;&gt;Authorships&lt;/font&gt;&lt;br&gt;&lt;/font&gt;" style="ellipse;whiteSpace=wrap;html=1;strokeColor=#a9a9a9;strokeWidth=2;" parent="1" vertex="1">
                    <mxGeometry x="340" y="700" width="170" height="110" as="geometry"/>
                </mxCell>
                <mxCell id="21" style="edgeStyle=none;rounded=1;html=1;entryX=0.949;entryY=0.279;entryDx=0;entryDy=0;entryPerimeter=0;strokeColor=#C53BD4;strokeWidth=4;fontColor=#A9A9A9;endArrow=block;endFill=1;endSize=10;" parent="1" source="9" target="8" edge="1">
                    <mxGeometry relative="1" as="geometry"/>
                </mxCell>
                <mxCell id="9" value="&lt;font face=&quot;Rock Salt&quot; data-font-src=&quot;https://fonts.googleapis.com/css?family=Rock+Salt&quot; style=&quot;&quot;&gt;&lt;font size=&quot;1&quot; color=&quot;#c53bd4&quot; style=&quot;&quot;&gt;&lt;b style=&quot;font-size: 26px;&quot;&gt;Authors&lt;/b&gt;&lt;/font&gt;&lt;br&gt;&lt;/font&gt;" style="ellipse;whiteSpace=wrap;html=1;strokeWidth=4;strokeColor=#c53bd4;" parent="1" vertex="1">
                    <mxGeometry x="580" y="630" width="170" height="120" as="geometry"/>
                </mxCell>
                <mxCell id="22" style="edgeStyle=none;rounded=1;html=1;strokeColor=#00A64F;strokeWidth=4;fontColor=#A9A9A9;endArrow=block;endFill=1;endSize=10;" parent="1" source="10" target="8" edge="1">
                    <mxGeometry relative="1" as="geometry"/>
                </mxCell>
                <mxCell id="10" value="&lt;font face=&quot;Rock Salt&quot; data-font-src=&quot;https://fonts.googleapis.com/css?family=Rock+Salt&quot; style=&quot;&quot;&gt;&lt;font size=&quot;1&quot; color=&quot;#00a64f&quot; style=&quot;&quot;&gt;&lt;b style=&quot;font-size: 24px;&quot;&gt;Institutions&lt;/b&gt;&lt;/font&gt;&lt;br&gt;&lt;/font&gt;" style="ellipse;whiteSpace=wrap;html=1;strokeWidth=4;strokeColor=#00a64f;" parent="1" vertex="1">
                    <mxGeometry x="577.5" y="780" width="175" height="130" as="geometry"/>
                </mxCell>
                <mxCell id="17" style="edgeStyle=none;rounded=1;html=1;strokeColor=#E64395;strokeWidth=4;fontColor=#A9A9A9;endArrow=block;endFill=1;endSize=10;entryX=0;entryY=0.364;entryDx=0;entryDy=0;entryPerimeter=0;" parent="1" source="11" target="18" edge="1">
                    <mxGeometry relative="1" as="geometry">
                        <mxPoint x="360" y="510" as="targetPoint"/>
                    </mxGeometry>
                </mxCell>
                <mxCell id="11" value="&lt;font face=&quot;Rock Salt&quot; data-font-src=&quot;https://fonts.googleapis.com/css?family=Rock+Salt&quot; style=&quot;&quot;&gt;&lt;font size=&quot;1&quot; color=&quot;#e64395&quot; style=&quot;&quot;&gt;&lt;b style=&quot;font-size: 26px;&quot;&gt;Sources&lt;/b&gt;&lt;/font&gt;&lt;br&gt;&lt;/font&gt;" style="ellipse;whiteSpace=wrap;html=1;strokeWidth=4;strokeColor=#e64395;" parent="1" vertex="1">
                    <mxGeometry x="110" y="270" width="160" height="120" as="geometry"/>
                </mxCell>
                <mxCell id="19" style="edgeStyle=none;rounded=1;html=1;entryX=0.5;entryY=0;entryDx=0;entryDy=0;strokeColor=#A9A9A9;strokeWidth=4;fontColor=#A9A9A9;endArrow=block;endFill=1;endSize=10;" parent="1" source="18" target="2" edge="1">
                    <mxGeometry relative="1" as="geometry"/>
                </mxCell>
                <mxCell id="18" value="&lt;font face=&quot;Rock Salt&quot; data-font-src=&quot;https://fonts.googleapis.com/css?family=Rock+Salt&quot; style=&quot;&quot;&gt;&lt;font color=&quot;#a9a9a9&quot; style=&quot;font-size: 21px;&quot;&gt;Locations&lt;/font&gt;&lt;br&gt;&lt;/font&gt;" style="ellipse;whiteSpace=wrap;html=1;strokeColor=#a9a9a9;strokeWidth=2;" parent="1" vertex="1">
                    <mxGeometry x="340" y="340" width="170" height="110" as="geometry"/>
                </mxCell>
                <mxCell id="24" style="edgeStyle=none;rounded=1;html=1;strokeColor=#00A64F;strokeWidth=4;fontSize=21;fontColor=#9ABF06;endArrow=block;endFill=1;endSize=10;" parent="1" source="23" target="11" edge="1">
                    <mxGeometry relative="1" as="geometry"/>
                </mxCell>
                <mxCell id="23" value="&lt;font face=&quot;Rock Salt&quot; data-font-src=&quot;https://fonts.googleapis.com/css?family=Rock+Salt&quot; style=&quot;&quot;&gt;&lt;font color=&quot;#9abf06&quot; size=&quot;1&quot; style=&quot;&quot;&gt;&lt;b style=&quot;font-size: 23px;&quot;&gt;Publishers&lt;/b&gt;&lt;/font&gt;&lt;br&gt;&lt;/font&gt;" style="ellipse;whiteSpace=wrap;html=1;strokeWidth=4;strokeColor=#9ABF06;" parent="1" vertex="1">
                    <mxGeometry x="110" y="440" width="160" height="110" as="geometry"/>
                </mxCell>
                <mxCell id="25" value="&lt;font face=&quot;Rock Salt&quot; data-font-src=&quot;https://fonts.googleapis.com/css?family=Rock+Salt&quot; style=&quot;&quot;&gt;&lt;font size=&quot;1&quot; style=&quot;&quot;&gt;&lt;b style=&quot;font-size: 23px;&quot;&gt;Funders&lt;/b&gt;&lt;/font&gt;&lt;br&gt;&lt;/font&gt;" style="ellipse;whiteSpace=wrap;html=1;strokeWidth=4;strokeColor=#2bd62b;fontColor=#2BD62B;" vertex="1" parent="1">
                    <mxGeometry x="585" y="300" width="160" height="110" as="geometry"/>
                </mxCell>
                <mxCell id="26" value="&lt;font face=&quot;Rock Salt&quot; data-font-src=&quot;https://fonts.googleapis.com/css?family=Rock+Salt&quot; style=&quot;&quot;&gt;&lt;font color=&quot;#a9a9a9&quot; style=&quot;font-size: 21px;&quot;&gt;Grants&lt;/font&gt;&lt;br&gt;&lt;/font&gt;" style="ellipse;whiteSpace=wrap;html=1;strokeColor=#a9a9a9;strokeWidth=2;" vertex="1" parent="1">
                    <mxGeometry x="580" y="450" width="170" height="110" as="geometry"/>
                </mxCell>
                <mxCell id="27" style="edgeStyle=none;rounded=1;html=1;strokeColor=#A9A9A9;strokeWidth=4;fontColor=#A9A9A9;endArrow=block;endFill=1;endSize=10;" edge="1" parent="1" source="26" target="2">
                    <mxGeometry relative="1" as="geometry">
                        <mxPoint x="435" y="460" as="sourcePoint"/>
                        <mxPoint x="435" y="500" as="targetPoint"/>
                    </mxGeometry>
                </mxCell>
                <mxCell id="28" style="edgeStyle=none;rounded=1;html=1;entryX=0.5;entryY=0;entryDx=0;entryDy=0;strokeColor=#2BD62B;strokeWidth=4;fontColor=#A9A9A9;endArrow=block;endFill=1;endSize=10;exitX=0.5;exitY=1;exitDx=0;exitDy=0;" edge="1" parent="1" source="25" target="26">
                    <mxGeometry relative="1" as="geometry">
                        <mxPoint x="435" y="460" as="sourcePoint"/>
                        <mxPoint x="435" y="500" as="targetPoint"/>
                    </mxGeometry>
                </mxCell>
            </root>
        </mxGraphModel>
    </diagram>
</mxfile>